# xmcd
# Copyright (C) 1995-1998 Ti Kan
#
# Track frame offsets:
#       150
#       21541
#       54066
#       79258
#       108181
#       132609
#       166513
#       183834
#       202337
#       217151
#       238387
#       265160
#       287529
#
# Disc length: 4026 seconds
#
# Revision: 0
# Processed by: cddbd v1.5.2PL0 Copyright (c) Steve Scherf et al.
# Submitted via: CD-Import v1.0
#
DISCID=bf0fb80d
DTITLE=Aliev Bleh Orkestar - Svirime!
DYEAR=10
DGENRE=
TTITLE0=Aliev Cocek
TTITLE1=Balkan Reggae
TTITLE2=Sirto Makedonija
TTITLE3=Ucime Majko
TTITLE4=Bleh Cocek
TTITLE5=Djelem Djelem
TTITLE6=Sukar Cuceko
TTITLE7=Postupano Oro
TTITLE8=Moja Mala
TTITLE9=Orkestar Cocek
TTITLE10=Mi Romni Nasvali
TTITLE11=Ani Mori Nuse
TTITLE12=Kocovo Oro
EXTD=
EXTT0=
EXTT1=
EXTT2=
EXTT3=
EXTT4=
EXTT5=
EXTT6=
EXTT7=
EXTT8=
EXTT9=
EXTT10=
EXTT11=
EXTT12=
PLAYORDER=
